<svg xmlns="http://www.w3.org/2000/svg" viewBox="0 0 640 640" role="img" aria-label="Student reading">
  <defs>
    <linearGradient id="g" x1="0" y1="0" x2="0" y2="1">
      <stop offset="0" stop-color="#0b0b17"/>
      <stop offset="1" stop-color="#151531"/>
    </linearGradient>
  </defs>

  <path d="M88 552c70 34 120 40 232 28 104-12 160-34 232-44 38-6 70-6 88 2-14 24-46 44-96 56-78 20-156 32-232 36-124 6-216-6-264-26-26-10-44-26-52-52z" fill="#e6e6e6" opacity="0.55"/>

  <path d="M268 128c-30 6-64 34-64 78 0 44 28 76 68 88 10 40 40 74 96 74 66 0 106-48 106-112 0-38-14-68-38-88-14-34-60-70-168-40z" fill="url(#g)"/>
  <path d="M258 250c-20-18-30-42-30-70 0-52 40-94 92-94 62 0 112 52 112 124 0 64-40 110-98 110-32 0-58-12-76-30z" fill="#f2a3a9"/>

  <path d="M162 332c-44 44-84 112-84 160 0 26 16 52 50 68 48 22 124 14 164-6 26-12 46-30 54-56l26-88-16-42c-52-54-146-78-194-36z" fill="#3b3b4f"/>
  <path d="M478 336c44 44 84 112 84 160 0 26-16 52-50 68-48 22-124 14-164-6-26-12-46-30-54-56l-26-88 16-42c52-54 146-78 194-36z" fill="#3b3b4f"/>

  <path d="M260 330c18-8 40-12 60-12s42 4 60 12c12 32 18 64 18 96 0 38-6 78-20 120-32 18-72 18-116 0-14-42-20-82-20-120 0-32 6-64 18-96z" fill="#e9eef6"/>

  <path d="M204 388c0-22 18-40 40-40 14 0 24 6 32 14 6-2 12-4 18-4 28 0 50 22 50 50 0 30-24 52-52 52H248c-24 0-44-20-44-44z" fill="#f2a3a9"/>
  <path d="M436 388c0-22-18-40-40-40-14 0-24 6-32 14-6-2-12-4-18-4-28 0-50 22-50 50 0 30 24 52 52 52h44c24 0 44-20 44-44z" fill="#f2a3a9"/>

  <path d="M188 386l180-44c10-2 18 4 18 14v214c0 8-6 14-14 16l-180 40c-12 2-20-4-20-16V402c0-8 6-14 16-16z" fill="#f6d84b"/>
  <path d="M374 342l78 18c8 2 14 8 14 16v210c0 12-8 18-20 16l-78-16c-8-2-14-8-14-16V356c0-10 8-16 20-14z" fill="#f6d84b"/>
  <path d="M336 354h22v232h-22z" fill="#d5b82f"/>

  <path d="M184 604c62 10 104 10 164 2" fill="none" stroke="#0b0b17" stroke-width="10" stroke-linecap="round" opacity="0.08"/>
</svg>
